<svg xmlns="http://www.w3.org/2000/svg" xmlns:xlink="http://www.w3.org/1999/xlink" width="150px" height="75px" viewBox="503.0902404785156 270.6098937988281 141.88876342773438 70.73674011230469" preserveAspectRatio="xMinYMin meet"  xmlns:drawsvg="http://www.drawsvg.org"><defs id="drawsvgConstraints"/><defs id="svgEditorDefs"><linearGradient gradientUnits="objectBoundingBox" id="lgrd2-black-white" spreadMethod="pad" x1="0%" x2="100%" y1="0%" y2="100%"><stop offset="0%" stop-color="black"/><stop offset="100%" stop-color="white"/></linearGradient></defs><rect id="svgEditorBackground" x="0" y="0" width="1040" height="620" style="fill: none; stroke: none;"/><g id="e3_group"><rect x="480.715668" y="39.168377" id="e1_rectangle" width="12.000000" height="100.000000" transform="matrix(0.707107 0.707107 -0.707107 0.707107 261.667 -96.929)" style="fill:rgb(150, 100, 35);"/><rect x="557.831604" y="512.693481" style="fill: rgb(150, 100, 35);" id="e2_rectangle" width="12.000000" height="100.000000" transform="matrix(0.707107 -0.707107 0.707107 0.707107 -191.245 311.175)"/></g><path d="M573.967,287.582v-16.701" style="fill:none;stroke:rgb(108,65,10);stroke-width:1px;" id="e3_pathV"/><path d="M520.879,340.134q0.5-5.844,5.16-4.757" style="fill:none;stroke:rgb(108,65,10);stroke-width:1px;" id="e5_arc2"/><path d="M517.619125,343.390499q0.134875-14.803499,10.318539-9.507826" style="fill:none;stroke:rgb(108,65,10);stroke-width:1px;" id="e6_arc2"/><path d="M514.088,347.189q0-23.083,15.072-14.935" style="fill:none;stroke:rgb(108,65,10);stroke-width:1px;" id="e7_arc2"/><path d="M562.44462,282.672006q0.95,7.468-7.196,6.925" style="fill:none;stroke:rgb(108,65,10);stroke-width:1px;" id="e8_arc2"/><path d="M564.75,279.964c4.343,7.337-5.447,15.902-13.577,13.44" style="fill:none;stroke:rgb(108,65,10);stroke-width:1px;" id="e9_arc3"/><path d="M566.919,278.062c8.405,10.868-10.74,24.048-18.872,18.199" style="fill:none;stroke:rgb(108,65,10);stroke-width:1px;" id="e10_arc3"/><path d="M535.677,308.899c5.024,0.543,3.666,4.209-2.308,2.444" style="fill:none;stroke:rgb(108,65,10);stroke-width:1px;" id="e12_arc3"/><path d="M537.714,306.863c8.553,3.666,4.481,10.183-6.654,6.382" style="fill:none;stroke:rgb(108,65,10);stroke-width:1px;" id="e13_arc3"/><path d="M540.022,304.419c10.048,8.826,3.259,16.701,-11.541,11.405" style="fill:none;stroke:rgb(108,65,10);stroke-width:1px;" id="e14_arc3"/><path d="M552.514,308.764c-1.901,-2.444,0.407,-3.802,2.037,-1.901" style="fill:none;stroke:rgb(108,65,10);stroke-width:1px;" id="e18_arc3"/><path d="M550.886,310.395c-5.569-7.742,0.678-8.149,5.701-5.569" style="fill:none;stroke:rgb(108,65,10);stroke-width:1px;" id="e19_arc3"/><path d="M534.863669,326.689501c-4.753256-1.496259-0.680133-2.854259,1.901221-2.037682" style="fill:none;stroke:rgb(108,65,10);stroke-width:1px;" id="e1_arc3"/><path d="M533.099,328.181c-7.605-2.852-5.025-6.79,5.431-5.295" style="fill:none;stroke:rgb(108,65,10);stroke-width:1px;" id="e21_arc3"/><path d="M512.459,348.954c-2.851,-17.923,6.382,-27.835,18.737,-18.873" style="fill:none;stroke:rgb(108,65,10);stroke-width:1px;" id="e22_arc3"/><path d="M592.45948,300.806485C597.48348,301.349485,596.12548,305.015485,590.15148,303.250485" style="fill:none;stroke:rgb(108,65,10);stroke-width:1px;" id="e2_arc3" transform="matrix(0.0678987 -0.992646 0.992646 0.0678987 252.167 872.056)"/><path d="M601.779744,303.221368c8.553,3.666,4.481,10.183-6.654,6.382" style="fill:none;stroke:rgb(108,65,10);stroke-width:1px;" id="e3_arc3" transform="matrix(-0.018945 -1.07352 1.07352 -0.018945 274.458 953.507)"/><path d="M608.686506,298.920475c10.048,8.826,3.259,16.701-11.541,11.405" style="fill:none;stroke:rgb(108,65,10);stroke-width:1px;" id="e4_arc3" transform="matrix(0.0193266 -1.03545 1.11237 0.0566871 241.083 911.849)"/><path d="M582.302447,280.515452q4.888,4.616,5.024,11.677" style="fill:none;stroke:rgb(108,65,10);stroke-width:1px;" id="e1_arc2" transform="matrix(-0.00851035 -0.999964 0.999964 -0.00851035 307.203 880.96)"/><path d="M615.531693,315.079365q-8.282,1.765-14.936-1.765" style="fill:none;stroke:rgb(108,65,10);stroke-width:1px;" id="e2_arc2" transform="matrix(0.00953902 -0.941518 1.1058 0.00812187 248.773 877.05)"/><path d="M580.006624,281.807817c-1.901-2.444,0.407-3.802,2.037-1.901" style="fill:none;stroke:rgb(108,65,10);stroke-width:1px;" id="e5_arc3" transform="matrix(-0.0369049 -0.999319 0.999319 -0.0369049 326.84 873.846)"/><path d="M578.244514,286.255135c-5.569-7.742,0.678-8.149,5.701-5.569" style="fill:none;stroke:rgb(108,65,10);stroke-width:1px;" id="e6_arc3" transform="matrix(-0.00940559 -1.01257 1.01371 -0.00939498 303.823 873.605)"/><path d="M591.118048,287.118763c10.048,8.826,3.259,16.701-11.541,11.405" style="fill:none;stroke:rgb(108,65,10);stroke-width:1px;" id="e7_arc3" transform="matrix(-0.0036345 0.922503 -0.957721 -0.00350085 867.559 -257.184)"/><path d="M629.441891,327.933087q0.393977,7.621442-6.0522,6.562559" style="fill:none;stroke:rgb(108,65,10);stroke-width:1px;" id="e3_arc2" transform="matrix(-0.00800994 1.17865 -1.03261 -0.00914278 975.185 -410.072)"/><path d="M631.953305,330.911924c4.073,8.146-7.875,18.33-13.443,13.44" style="fill:none;stroke:rgb(108,65,10);stroke-width:1px;" id="e8_arc3" transform="matrix(0.0823217 1.08422 -0.931289 0.0958399 890.948 -385.596)"/><path d="M634.923409,333.703787c5.617786,11.077603-12.525459,25.004354-20.658678,17.519775" style="fill:none;stroke:rgb(108,65,10);stroke-width:1px;" id="e15_arc3" transform="matrix(0.0695094 0.997581 -0.997581 0.0695094 926.109 -322.184)"/><path d="M635.376354,320.783207c8.143061,13.883055-21.240704,32.864286-28.600148,20.841919" style="fill:none;stroke:rgb(108,65,10);stroke-width:1px;" id="e16_arc3" transform="matrix(0.153347 0.988172 -0.988172 0.153347 860.652 -339.385)"/><path d="M615.616168,324.12718q-7.779624,0.696156-12.606489-3.570855" style="fill:none;stroke:rgb(108,65,10);stroke-width:1px;" id="e9_arc2" transform="matrix(0.253067 1.14309 -1.01031 0.286326 782.331 -472.675)"/></svg>